HIERARCHY
ROOT Hips
{
	OFFSET 0.000000 0.000000 0.000000
	CHANNELS 6 Xposition Yposition Zposition Xrotation Yrotation Zrotation
	JOINT LeftUpLeg_virtual
	{
		OFFSET 0.000000 0.000000 0.000000
		CHANNELS 3 Xrotation Yrotation Zrotation
		JOINT LeftUpLeg
		{
			OFFSET 15.427100 -6.655098 0.678600
			CHANNELS 3 Xrotation Yrotation Zrotation
			JOINT LeftLeg
			{
				OFFSET 4.081073 -39.591068 13.024000
				CHANNELS 3 Xrotation Yrotation Zrotation
				JOINT LeftFoot
				{
					OFFSET -4.081074 -37.707932 -15.979700
					CHANNELS 3 Xrotation Yrotation Zrotation
					JOINT LeftToeBase
					{
						OFFSET 5.346399 -15.068900 20.645000
						CHANNELS 3 Xrotation Yrotation Zrotation
						JOINT LeftToe_End
						{
							OFFSET 2.754700 0.931300 11.300900
							CHANNELS 3 Xrotation Yrotation Zrotation
							End Site
							{
								OFFSET 0 0 0
							}
						}
					}
				}
			}
		}
	}
	JOINT RightUpLeg_virtual
	{
		OFFSET 0.000000 0.000000 0.000000
		CHANNELS 3 Xrotation Yrotation Zrotation
		JOINT RightUpLeg
		{
			OFFSET -15.569500 -6.655098 0.678600
			CHANNELS 3 Xrotation Yrotation Zrotation
			JOINT RightLeg
			{
				OFFSET -4.081825 -39.591045 13.023800
				CHANNELS 3 Xrotation Yrotation Zrotation
				JOINT RightFoot
				{
					OFFSET 4.081824 -37.707954 -15.979600
					CHANNELS 3 Xrotation Yrotation Zrotation
					JOINT RightToeBase
					{
						OFFSET -5.346400 -15.068900 20.645000
						CHANNELS 3 Xrotation Yrotation Zrotation
						JOINT RightToe_End
						{
							OFFSET -2.754700 0.931300 11.300900
							CHANNELS 3 Xrotation Yrotation Zrotation
							End Site
							{
								OFFSET 0 0 0
							}
						}
					}
				}
			}
		}
	}
	JOINT Spine_virtual
	{
		OFFSET 0.000000 0.000000 0.000000
		CHANNELS 3 Xrotation Yrotation Zrotation
		JOINT Spine
		{
			OFFSET -0.279200 12.230698 -2.892100
			CHANNELS 3 Xrotation Yrotation Zrotation
			JOINT Spine1
			{
				OFFSET -0.232667 10.192268 -1.242267
				CHANNELS 3 Xrotation Yrotation Zrotation
				JOINT Spine1_split
				{
					OFFSET -0.232667 10.192268 -1.242267
					CHANNELS 3 Xrotation Yrotation Zrotation
					JOINT Spine2
					{
						OFFSET -0.232667 10.192268 -1.242267
						CHANNELS 3 Xrotation Yrotation Zrotation
						JOINT Neck_virtual
						{
							OFFSET 0.000000 0.000000 0.000000
							CHANNELS 3 Xrotation Yrotation Zrotation
							JOINT Neck
							{
								OFFSET -0.418800 17.814194 8.416900
								CHANNELS 3 Xrotation Yrotation Zrotation
								JOINT Head
								{
									OFFSET 0.000000 7.031097 3.806800
									CHANNELS 3 Xrotation Yrotation Zrotation
									JOINT HeadTop_End
									{
										OFFSET 0.000000 24.646606 12.978600
										CHANNELS 3 Xrotation Yrotation Zrotation
										End Site
										{
											OFFSET 0 0 0
										}
									}
								}
							}
						}
						JOINT LeftShoulder_virtual
						{
							OFFSET 0.000000 0.000000 0.000000
							CHANNELS 3 Xrotation Yrotation Zrotation
							JOINT LeftShoulder
							{
								OFFSET 8.476499 7.247704 -3.868750
								CHANNELS 3 Xrotation Yrotation Zrotation
								JOINT LeftShoulder_split
								{
									OFFSET 8.476499 7.247704 -3.868750
									CHANNELS 3 Xrotation Yrotation Zrotation
									JOINT LeftArm
									{
										OFFSET 9.308998 -2.777710 0.208600
										CHANNELS 3 Xrotation Yrotation Zrotation
										JOINT LeftForeArm
										{
											OFFSET 29.972298 0.000000 0.000000
											CHANNELS 3 Xrotation Yrotation Zrotation
											JOINT LeftHand
											{
												OFFSET 26.026505 0.000000 0.000000
												CHANNELS 3 Xrotation Yrotation Zrotation
												End Site
												{
													OFFSET 0 0 0
												}
											}
										}
									}
								}
							}
						}
						JOINT RightShoulder_virtual
						{
							OFFSET 0.000000 0.000000 0.000000
							CHANNELS 3 Xrotation Yrotation Zrotation
							JOINT RightShoulder
							{
								OFFSET -7.570500 7.247704 -3.868750
								CHANNELS 3 Xrotation Yrotation Zrotation
								JOINT RightShoulder_split
								{
									OFFSET -7.570500 7.247704 -3.868750
									CHANNELS 3 Xrotation Yrotation Zrotation
									JOINT RightArm
									{
										OFFSET -9.308998 -2.777710 0.208500
										CHANNELS 3 Xrotation Yrotation Zrotation
										JOINT RightForeArm
										{
											OFFSET -29.972300 0.000000 0.000000
											CHANNELS 3 Xrotation Yrotation Zrotation
											JOINT RightHand
											{
												OFFSET -26.026505 0.000000 0.000000
												CHANNELS 3 Xrotation Yrotation Zrotation
												End Site
												{
													OFFSET 0 0 0
												}
											}
										}
									}
								}
							}
						}
					}
				}
			}
		}
	}
}
MOTION
Frames: 11
Frame Time: 0.03333333
0.603660 92.475571 1.549053 0.000000 0.000000 0.000000 1.440514 0.372921 0.230774 -4.551710 -2.997799 12.858564 14.055508 0.546076 -3.538001 -9.532060 12.320743 -6.175724 0.975238 0.311796 -1.743721 0.000000 0.000000 0.000000 2.383584 -0.454304 0.205762 -4.210226 -2.758563 -14.105690 13.573842 3.068489 3.035308 -8.802137 -12.624054 9.936576 0.561970 0.467459 0.514257 0.000000 0.000000 0.000000 2.556847 -0.707397 -0.319383 2.949811 0.344868 1.751649 3.297457 0.042610 0.304829 0.941186 0.390391 0.129429 0.000000 0.000000 0.000000 2.831619 0.115071 0.057601 -2.859191 -0.289601 0.136723 -0.971003 -1.808753 1.893784 0.000000 0.000000 0.000000 2.690353 0.152385 0.245204 1.297683 9.502111 -13.273188 -0.683345 -2.340065 -0.705403 11.844025 -5.583201 -52.793210 -0.551984 -32.494143 0.854787 0.000000 0.000000 0.000000 2.676440 0.058582 0.287099 1.688609 -9.780003 11.451674 0.864378 1.995387 -1.808141 1.864764 17.789103 63.517652 2.175146 25.297346 0.306864 0.000000 0.000000 0.000000 
1.153529 92.298256 0.972160 0.000000 0.000000 0.000000 1.429067 0.038259 0.333815 -4.747720 -2.916140 12.499264 14.101043 0.568360 -3.633811 -10.094868 11.814624 -6.407135 0.782239 0.284701 -1.607986 0.000000 0.000000 0.000000 2.342640 -0.484628 0.306151 -4.345440 -2.946072 -14.409232 13.398321 3.020253 3.027926 -9.005701 -12.632707 10.045460 -0.212137 0.435931 0.503216 0.000000 0.000000 0.000000 2.502364 -0.940347 -0.253250 2.967171 0.309894 1.801282 3.284598 0.014051 0.301346 1.049637 0.176077 0.035579 0.000000 0.000000 0.000000 2.886338 0.114290 0.037800 -2.829120 -0.243135 0.043095 -0.899149 -1.688330 1.809251 0.000000 0.000000 0.000000 2.749785 0.119989 0.238898 1.287497 9.299863 -13.222054 -0.720569 -2.141807 -0.652514 11.669067 -6.000748 -52.970043 -0.534402 -32.650002 0.870643 0.000000 0.000000 0.000000 2.718338 0.034248 0.299260 1.718101 -9.532949 11.550256 0.924981 2.068857 -1.879120 1.798375 17.772243 63.429153 2.199485 25.041297 0.355363 0.000000 0.000000 0.000000 
2.148281 92.015938 0.474304 0.000000 0.000000 0.000000 1.376886 -0.493182 0.358658 -5.397567 -2.726153 12.137334 15.129842 0.079475 -3.888355 -10.767435 10.422079 -6.838738 0.442341 0.210562 -1.292367 0.000000 0.000000 0.000000 2.190120 -0.682097 0.365710 -4.300115 -2.968790 -14.926171 13.242961 2.981283 2.939808 -9.227084 -12.580366 10.286553 -0.546203 0.419578 0.484972 0.000000 0.000000 0.000000 2.457709 -1.297286 -0.176312 3.064196 0.183879 1.793651 3.208068 -0.038216 0.284187 1.067774 0.109283 -0.050888 0.000000 0.000000 0.000000 2.863073 0.080885 0.018183 -2.752198 -0.130139 -0.093944 -0.766824 -1.481445 1.727041 0.000000 0.000000 0.000000 2.744694 0.069968 0.228836 1.263841 8.870978 -13.177813 -0.620723 -1.869922 -0.534818 11.501395 -6.814052 -53.212843 -0.415118 -32.662129 0.876843 0.000000 0.000000 0.000000 2.708891 -0.017462 0.313426 1.752990 -8.958611 11.871822 0.873850 2.027089 -2.060979 1.625174 17.816743 63.048103 2.167092 24.392697 0.400508 0.000000 0.000000 0.000000 
3.425622 91.671112 0.228935 0.000000 0.000000 0.000000 1.359848 -1.082356 0.289797 -6.456393 -2.419630 11.868045 16.799504 -0.614277 -4.223342 -11.577834 8.486124 -7.095450 0.307083 0.095559 -0.882524 0.000000 0.000000 0.000000 2.046089 -0.992328 0.308292 -4.174858 -2.873497 -15.578118 13.097128 2.942241 2.861437 -9.369666 -12.428482 10.730149 -0.470317 0.435127 0.379046 0.000000 0.000000 0.000000 2.429499 -1.733376 -0.161444 3.240621 -0.023700 1.760323 3.078945 -0.101086 0.254675 0.979886 0.178384 -0.055718 0.000000 0.000000 0.000000 2.774711 0.020097 0.000247 -2.630427 0.024600 -0.244669 -0.608463 -1.256392 1.696422 0.000000 0.000000 0.000000 2.677768 0.011000 0.217014 1.227663 8.288078 -13.107664 -0.507495 -1.491493 -0.410800 11.326266 -7.863236 -53.531987 -0.230744 -32.522619 0.864696 0.000000 0.000000 0.000000 2.647547 -0.088349 0.318075 1.781640 -8.124798 12.334514 0.742672 1.909806 -2.265676 1.313582 17.875816 62.448713 2.085406 23.521428 0.444204 0.000000 0.000000 0.000000 
4.845603 91.300262 0.083672 0.000000 0.000000 0.000000 1.405664 -1.660198 0.110441 -7.728006 -2.092422 11.630363 18.574515 -1.114817 -4.528418 -12.573821 6.536323 -6.762565 0.432990 -0.020022 -0.494382 0.000000 0.000000 0.000000 2.012415 -1.445583 0.117234 -4.128521 -2.729570 -16.320590 12.976594 2.887221 2.854843 -9.326138 -12.177012 11.570460 -0.498353 0.496792 0.131513 0.000000 0.000000 0.000000 2.459175 -2.234255 -0.249380 3.483331 -0.280544 1.747417 2.924967 -0.171108 0.217458 0.897546 0.289073 -0.033493 0.000000 0.000000 0.000000 2.636277 -0.059378 -0.011036 -2.484676 0.186473 -0.387841 -0.466948 -1.086662 1.761139 0.000000 0.000000 0.000000 2.563144 -0.051688 0.208371 1.179940 7.626459 -12.992039 -0.472056 -1.129792 -0.369697 11.099704 -9.008214 -53.939845 -0.055645 -32.317481 0.824283 0.000000 0.000000 0.000000 2.535931 -0.172741 0.300277 1.788555 -7.123116 12.837474 0.649095 1.765795 -2.431296 0.881344 17.912847 61.725642 1.963376 22.575566 0.485175 0.000000 0.000000 0.000000 
6.207649 90.963379 0.047916 0.000000 0.000000 0.000000 1.589446 -2.223764 -0.163797 -8.886010 -1.829502 11.326243 19.951261 -1.181933 -4.704186 -13.705382 5.009732 -5.727540 0.712253 -0.098194 -0.228222 0.000000 0.000000 0.000000 2.051578 -1.897779 -0.171136 -4.315754 -2.568077 -17.133098 12.961273 2.799511 2.926125 -9.071125 -11.854325 12.779206 -1.095098 0.601006 -0.256381 0.000000 0.000000 0.000000 2.532137 -2.684704 -0.446606 3.774264 -0.548895 1.784200 2.776810 -0.243924 0.180597 0.885454 0.407938 -0.001606 0.000000 0.000000 0.000000 2.464432 -0.149807 -0.016689 -2.335892 0.318734 -0.499871 -0.363593 -1.026188 1.956655 0.000000 0.000000 0.000000 2.421429 -0.110450 0.204878 1.127205 6.947999 -12.820633 -0.501340 -0.868451 -0.392738 10.783445 -10.099211 -54.431021 0.074961 -32.125733 0.758347 0.000000 0.000000 0.000000 2.389968 -0.261618 0.257871 1.775962 -6.064989 13.326341 0.619579 1.622862 -2.552199 0.379589 17.922954 60.948298 1.830526 21.599287 0.518522 0.000000 0.000000 0.000000 
7.430120 90.678383 0.129925 0.000000 0.000000 0.000000 1.892894 -2.818325 -0.464935 -9.779207 -1.715174 10.800202 20.859913 -0.828189 -4.710381 -14.811970 4.044629 -4.253252 1.023984 -0.140850 -0.149529 0.000000 0.000000 0.000000 2.177930 -2.334157 -0.481261 -4.705226 -2.407360 -18.023558 13.305103 2.672571 3.101422 -8.675103 -11.468541 13.972742 -2.306614 0.735120 -0.670674 0.000000 0.000000 0.000000 2.623526 -3.066817 -0.716488 4.107347 -0.805349 1.862532 2.648539 -0.315345 0.153005 0.920004 0.468330 0.049353 0.000000 0.000000 0.000000 2.270368 -0.240749 -0.015133 -2.204164 0.413787 -0.558564 -0.282947 -1.060274 2.271015 0.000000 0.000000 0.000000 2.276992 -0.161239 0.203719 1.078946 6.294605 -12.586860 -0.552209 -0.730449 -0.485506 10.406648 -11.027859 -55.014599 0.135208 -31.972928 0.667681 0.000000 0.000000 0.000000 2.234204 -0.347922 0.201998 1.752975 -5.026785 13.776001 0.638862 1.459348 -2.626028 -0.120644 17.894187 60.166986 1.707224 20.628285 0.537338 0.000000 0.000000 0.000000 
8.506259 90.449249 0.199036 0.000000 0.000000 0.000000 2.180292 -3.386480 -0.692826 -10.362526 -1.799872 9.968348 21.581549 -0.256879 -4.553332 -15.711655 3.563128 -2.774176 1.293960 -0.161001 -0.245707 0.000000 0.000000 0.000000 2.293325 -2.719243 -0.691098 -5.259195 -2.251794 -18.990187 14.215756 2.417756 3.334817 -8.160816 -11.051881 14.775364 -4.069253 0.879325 -0.914199 0.000000 0.000000 0.000000 2.713801 -3.319865 -0.970961 4.480733 -1.034475 1.946914 2.546678 -0.383416 0.142325 0.959156 0.478421 0.092885 0.000000 0.000000 0.000000 2.061538 -0.325228 -0.004921 -2.097538 0.459189 -0.559317 -0.189593 -1.157866 2.666931 0.000000 0.000000 0.000000 2.138825 -0.204879 0.204364 1.037784 5.695769 -12.317008 -0.617655 -0.706543 -0.579890 10.019776 -11.796119 -55.680160 0.150086 -31.856450 0.573593 0.000000 0.000000 0.000000 2.084188 -0.422900 0.144014 1.724456 -4.070068 14.187664 0.728898 1.333027 -2.639426 -0.587661 17.837193 59.407995 1.615051 19.763287 0.525927 0.000000 0.000000 0.000000 
9.492307 90.283997 0.337234 0.000000 0.000000 0.000000 2.383835 -3.776817 -0.782554 -10.669796 -1.916528 8.843010 22.304352 0.247364 -4.323355 -16.438508 3.365991 -1.768166 1.632614 -0.191121 -0.429904 0.000000 0.000000 0.000000 2.339932 -3.074751 -0.755120 -5.878639 -1.976115 -20.016740 15.856325 1.955012 3.537044 -7.368864 -10.701966 14.852859 -6.538301 0.995014 -0.831443 0.000000 0.000000 0.000000 2.816065 -3.488544 -1.137961 4.887296 -1.247889 1.971852 2.454276 -0.455909 0.149757 0.941763 0.522424 0.098923 0.000000 0.000000 0.000000 1.862404 -0.395626 0.008806 -2.023668 0.460280 -0.495203 -0.056071 -1.245408 3.070020 0.000000 0.000000 0.000000 2.008630 -0.239799 0.208676 1.004394 5.163214 -12.041039 -0.696193 -0.764212 -0.646026 9.620064 -12.436522 -56.381627 0.158072 -31.771694 0.503413 0.000000 0.000000 0.000000 1.946702 -0.486553 0.098598 1.695294 -3.244800 14.584329 0.822753 1.284912 -2.588035 -0.956780 17.800455 58.673647 1.575575 19.063987 0.475842 0.000000 0.000000 0.000000 
10.466488 90.149292 0.628506 0.000000 0.000000 0.000000 2.519606 -3.929090 -0.698964 -10.837053 -1.909967 7.525580 22.993029 0.469680 -4.179748 -17.050831 3.246043 -1.616327 1.857544 -0.231604 -0.501009 0.000000 0.000000 0.000000 2.369094 -3.399357 -0.669161 -6.488666 -1.493921 -21.122155 18.137111 1.409533 3.606640 -5.940464 -10.372158 14.494669 -10.031567 1.008421 -0.385479 0.000000 0.000000 0.000000 2.950084 -3.653644 -1.179420 5.339665 -1.479650 1.890726 2.352077 -0.537638 0.172336 0.906732 0.559095 0.132863 0.000000 0.000000 0.000000 1.690537 -0.453193 0.022999 -1.973103 0.446134 -0.373124 0.132540 -1.249268 3.412859 0.000000 0.000000 0.000000 1.880401 -0.266560 0.217429 0.977030 4.672357 -11.782148 -0.805205 -0.874644 -0.727511 9.132706 -12.988569 -57.073833 0.148910 -31.686962 0.466200 0.000000 0.000000 0.000000 1.820645 -0.541795 0.070158 1.661761 -2.551923 14.969901 0.855580 1.346882 -2.495042 -1.170992 17.799598 57.973225 1.583484 18.519155 0.402479 0.000000 0.000000 0.000000 
11.406819 90.033524 1.073093 0.000000 0.000000 0.000000 2.544850 -4.043631 -0.461789 -10.851446 -1.691347 6.189747 23.494830 0.437089 -4.230585 -17.571293 3.140500 -2.171781 1.667821 -0.239737 -0.282263 0.000000 0.000000 0.000000 2.435541 -3.661187 -0.461383 -7.257069 -0.661199 -22.327960 20.872240 1.078363 3.410423 -3.557236 -9.936397 14.333743 -14.449646 0.865548 0.327173 0.000000 0.000000 0.000000 3.092433 -3.806023 -1.038854 5.818548 -1.753910 1.663806 2.230504 -0.630661 0.200405 0.916385 0.535093 0.247110 0.000000 0.000000 0.000000 1.547830 -0.506088 0.030905 -1.922425 0.442760 -0.223123 0.401697 -1.107076 3.644647 0.000000 0.000000 0.000000 1.745535 -0.294012 0.219477 0.955806 4.197167 -11.571558 -0.908675 -1.030406 -0.805492 8.498483 -13.458070 -57.705516 0.131078 -31.607797 0.451347 0.000000 0.000000 0.000000 1.703840 -0.591556 0.054474 1.632054 -1.994512 15.363061 0.745825 1.534712 -2.372335 -1.216333 17.835376 57.308183 1.633480 18.055429 0.325393 0.000000 0.000000 0.000000 
